<?xml version="1.0" encoding="UTF-8"?>
<svg version="1.1" xmlns="http://www.w3.org/2000/svg" width="1800" height="1800">
<path d="M0 0 C18.34178326 -0.04679503 36.68355096 -0.08202555 55.02538109 -0.10362434 C63.54249446 -0.11392119 72.05957065 -0.127951 80.57666016 -0.15087891 C88.00325217 -0.17086162 95.42981726 -0.183728 102.85643542 -0.18817699 C106.78595034 -0.19077612 110.71538824 -0.19685182 114.64487839 -0.21146011 C118.34992011 -0.22512128 122.0548537 -0.22920554 125.75991821 -0.22621536 C127.75472397 -0.22702056 129.74951819 -0.23773726 131.74429321 -0.24884033 C143.85483651 -0.22129022 155.16926432 1.06107892 164.57632446 9.41363525 C170.24781312 15.73322804 173.43945058 23.93642652 176.4140625 31.765625 C176.8166478 32.80138168 177.21923309 33.83713837 177.63401794 34.90428162 C178.50930964 37.15835707 179.38060335 39.41398825 180.24832153 41.67098999 C182.42175913 47.32136887 184.62183154 52.96135966 186.82019997 58.60207176 C187.60599759 60.6190669 188.39076464 62.63646102 189.17546082 64.65388489 C194.75571143 78.98941143 200.47517423 93.26853441 206.2032814 107.54547501 C208.88034189 114.21936509 211.55331462 120.89489458 214.2265625 127.5703125 C214.53427645 128.33861956 214.84199039 129.10692661 215.15902901 129.8985157 C223.45188198 150.60655326 231.69453967 171.33456422 239.9375 192.0625 C240.72239942 194.03611347 241.50730136 196.00972593 242.29220581 197.9833374 C245.46929485 205.97215411 248.64617195 213.96105507 251.82267761 221.95010376 C257.33188772 235.80596219 262.84295175 249.66108188 268.35546875 263.515625 C268.7392783 264.48025728 269.12308784 265.44488956 269.51852798 266.43875313 C271.45137676 271.2965898 273.38425086 276.15441641 275.31713867 281.01223755 C279.14259481 290.62657656 282.96787467 300.24098569 286.79296875 309.85546875 C287.16989742 310.80288877 287.5468261 311.7503088 287.93517685 312.72643852 C293.42928684 326.53623266 298.9217519 340.34668028 304.41316986 354.15754509 C305.60827682 357.16319528 306.8034284 360.16882773 307.99859619 363.17445374 C308.38873146 364.15557475 308.77886673 365.13669577 309.18082428 366.14754772 C309.96096907 368.10947318 310.74111534 370.07139806 311.52126312 372.03332233 C313.38256984 376.71423958 315.24373489 381.39521305 317.10455322 386.07632446 C320.77289386 395.30435752 324.44261247 404.53183754 328.11669922 413.75758457 C329.7577297 417.87846695 331.39761921 421.99979754 333.03546143 426.12194824 C334.68935042 430.28437964 336.34571464 434.44581776 338.00387764 438.60654831 C338.6241956 440.16433534 339.24361863 441.72247906 339.86210442 443.28099442 C340.70719838 445.41013115 341.55545761 447.53797907 342.40454102 449.66552734 C342.8835939 450.8696225 343.36264679 452.07371765 343.85621643 453.31430054 C344.7483334 455.87283458 344.7483334 455.87283458 346 457 C361.77460679 417.62223315 377.51549492 378.2312242 393.1875 338.8125 C393.54935143 337.90239418 393.91120285 336.99228836 394.28401947 336.05460358 C399.48257484 322.97939021 404.67959928 309.90356854 409.87625122 296.82759857 C412.88086895 289.26732092 415.88561681 281.707095 418.89057732 274.14695358 C419.64016398 272.26104192 420.38972278 270.37511919 421.13925362 268.48918533 C425.1907526 258.29507956 429.24444223 248.10185576 433.30444336 237.91113281 C434.73820028 234.31188153 436.17184741 230.71258654 437.60546875 227.11328125 C437.95641539 226.23232159 438.30736202 225.35136192 438.66894341 224.44370651 C443.19556844 213.07868511 447.69739938 201.70424919 452.17359924 190.3192749 C454.44139615 184.5522567 456.71896446 178.78911552 458.99947643 173.02711487 C460.80046119 168.47448485 462.58894421 163.91722454 464.36755657 159.35581112 C465.45418019 156.57831107 466.55316098 153.80582673 467.65567589 151.03460121 C468.39098892 149.17573601 469.11145533 147.31101867 469.83125305 145.4460907 C473.96894523 135.1106164 479.41826736 125.9496089 489.84593868 121.15043545 C496.72287434 118.58634163 503.28679592 118.56964908 510.56274414 118.59594727 C511.91068586 118.59023431 513.25862274 118.58326649 514.60655212 118.57514954 C518.24287463 118.55730873 521.87895465 118.55836876 525.51530766 118.56409192 C528.55954974 118.56719582 531.60374605 118.56107831 534.64798158 118.55505317 C541.83184792 118.54104051 549.01559524 118.54254306 556.19946289 118.55395508 C563.5949049 118.56544401 570.98998459 118.55134041 578.3853789 118.5245586 C584.75253754 118.50236932 591.1195827 118.49577115 597.48677725 118.50163502 C601.28200974 118.50499679 605.07700982 118.50264126 608.87220955 118.48538399 C612.44045173 118.46986416 616.00815836 118.4739253 619.57637978 118.49268913 C621.49991323 118.49810317 623.42347104 118.48390089 625.34695435 118.46899414 C633.11929687 118.53493441 638.84110671 119.18761131 644.69411278 124.55296516 C648.35269169 128.50304757 650.51742172 132.67168603 652.43041992 137.65991211 C652.87526073 138.76907407 652.87526073 138.76907407 653.32908821 139.90064335 C654.30942023 142.35452162 655.26985727 144.81568594 656.23046875 147.27734375 C656.93141659 149.04328908 657.63361294 150.80873927 658.33695984 152.57373047 C660.23847865 157.35521386 662.12300218 162.14323413 664.0047226 166.93253708 C666.00016712 172.00216114 668.01177683 177.0653617 670.02197266 182.12915039 C673.36819299 190.5635469 676.70585743 199.00128003 680.03759766 207.44140625 C684.70790296 219.27059347 689.40184714 231.09027618 694.10546875 242.90625 C694.47151278 243.82590546 694.8375568 244.74556091 695.21469307 245.69308472 C696.68116539 249.37744626 698.14771291 253.06177782 699.61449146 256.74601746 C702.14334049 263.09818168 704.67008933 269.45117809 707.19555664 275.8046875 C716.48608803 299.17716397 725.78578637 322.54596225 735.11480713 345.90310669 C736.44716026 349.23912554 737.77829541 352.5756262 739.1083374 355.91256714 C740.64341636 359.76374408 742.1809443 363.61393341 743.72051239 367.46331787 C744.28232214 368.86918139 744.84325566 370.27539542 745.40326691 371.68197632 C746.16244522 373.5883377 746.92511085 375.49330925 747.68798828 377.39819336 C748.11314728 378.46291367 748.53830627 379.52763397 748.97634888 380.62461853 C749.78845179 382.9116292 749.78845179 382.9116292 751 384 C751.35489502 383.10023438 751.70979004 382.20046875 752.07543945 381.2734375 C762.21774464 355.56164909 772.38487917 329.85973351 782.56054688 304.16113281 C786.14661583 295.10435858 789.73153669 286.04712991 793.31652832 276.9899292 C795.29430368 271.99326692 797.27215578 266.99663502 799.25 262 C800.04166703 260.00000015 800.8333337 258.00000015 801.625 256 C806.375 244 806.375 244 807.56233215 241.0004425 C808.35457516 238.99897416 809.1468013 236.99749914 809.93901062 234.99601746 C811.90922144 230.01842843 813.87971842 225.04095307 815.85083008 220.0637207 C819.52027728 210.79716645 823.18698474 201.52955746 826.84384155 192.25802612 C828.54763582 187.93875786 830.25301084 183.62011448 831.95849609 179.30151367 C832.76120114 177.26764342 833.56315503 175.2334765 834.36425781 173.19897461 C836.54215962 167.66820135 838.73222871 162.14263967 840.94671631 156.62640381 C841.6546654 154.86110525 842.35940994 153.0945185 843.06109619 151.32672119 C844.08698385 148.75039483 845.12908856 146.18121434 846.17578125 143.61328125 C846.47316696 142.85935593 846.77055267 142.1054306 847.07695007 141.32865906 C850.04087525 134.15389378 854.05638436 127.47514585 861 123.625 C861.804375 123.16351562 862.60875 122.70203125 863.4375 122.2265625 C868.28309854 119.90717539 872.52896144 118.75056772 877.90670776 118.73257446 C879.64346771 118.71977951 879.64346771 118.71977951 881.41531372 118.70672607 C882.67157562 118.70763245 883.92783752 118.70853882 885.22216797 118.70947266 C886.56966523 118.70348283 887.91715907 118.69667624 889.26464844 118.68911743 C892.91349273 118.67149733 896.56224313 118.66676377 900.21112585 118.66548586 C902.49371783 118.66406155 904.77628614 118.65978667 907.05887222 118.65449142 C915.03031167 118.63600502 923.00168436 118.62781915 930.97314453 118.62939453 C938.39066226 118.63059587 945.80788899 118.60949172 953.22533309 118.5779072 C959.60515799 118.55171407 965.98488801 118.54102849 972.36476624 118.54230535 C976.17011963 118.54281405 979.97521419 118.53718189 983.78051376 118.51594925 C987.36100442 118.49651506 990.94099068 118.49647714 994.52149963 118.51098251 C996.45223447 118.51405388 998.38296963 118.49743082 1000.31362915 118.48010254 C1008.77864839 118.54113743 1014.35590666 119.55659586 1020.6953125 125.546875 C1023.99415217 129.97635433 1025.84641414 135.1558562 1027.875 140.25 C1028.38514672 141.50857534 1028.89600687 142.76686168 1029.4074707 144.02490234 C1031.2911263 148.6755314 1033.14558972 153.33764953 1035 158 C1035.7572991 159.90072616 1036.51462446 161.80144185 1037.27197266 163.70214844 C1041.94347629 175.43439848 1046.59376497 187.17501671 1051.23828125 198.91796875 C1058.41213428 217.05585908 1065.61898577 235.18059664 1072.82778931 253.30461884 C1075.65626202 260.41592182 1078.48435284 267.5273767 1081.31251907 274.63880157 C1082.02962529 276.44194319 1082.74674518 278.24507936 1083.46387863 280.04821014 C1088.42926683 292.53299906 1093.39200066 305.01883948 1098.35239983 317.50561142 C1116.83490611 364.03051421 1135.3840113 410.52834295 1154 457 C1156.65108876 451.83290367 1159.03289359 446.67857266 1161.13134766 441.26635742 C1161.41647091 440.5402936 1161.70159416 439.81422977 1161.99535751 439.06616402 C1162.60897809 437.50242288 1163.22093626 435.93802856 1163.83137131 434.37304115 C1165.15305562 430.98486059 1166.48308675 427.59997407 1167.81244087 424.21479702 C1168.50712498 422.44548182 1169.20137865 420.67599757 1169.89521599 418.90635014 C1173.4100637 409.94337602 1176.96373974 400.99601692 1180.5234375 392.05078125 C1181.15951149 390.45144591 1181.79554835 388.8520958 1182.43154907 387.25273132 C1184.07068909 383.13109248 1185.7103955 379.00967918 1187.3502121 374.88830948 C1189.12919798 370.41681963 1190.90759157 365.94509423 1192.68603516 361.47338867 C1195.28336142 354.94280233 1197.88083527 348.41227474 1200.47850609 341.88182545 C1205.07021429 330.33836468 1209.66051438 318.7943446 1214.25 307.25 C1214.58539921 306.40634573 1214.92079842 305.56269146 1215.26636124 304.69347191 C1216.61990859 301.28879028 1217.97345027 297.8841064 1219.3269825 294.47941875 C1228.78136541 270.69783194 1238.23719553 246.91682075 1247.6953125 223.13671875 C1248.05763662 222.22574181 1248.41996075 221.31476486 1248.79326439 220.37618256 C1252.45869577 211.16037238 1256.12423934 201.94460683 1259.78999996 192.72892761 C1268.17485134 171.64942084 1276.55708655 150.56887858 1284.93397522 129.48620605 C1288.43386974 120.67818601 1291.93529097 111.87077883 1295.44067383 103.06494141 C1296.44599614 100.53927769 1297.45130227 98.01360753 1298.45659065 95.4879303 C1299.11295051 93.83891883 1299.76934643 92.18992172 1300.42577934 90.54093933 C1304.34416584 80.6966397 1308.24842125 70.84696211 1312.13160706 60.98872375 C1314.17488698 55.80208775 1316.22734226 50.61909567 1318.28036499 45.43630981 C1319.2029745 43.10128278 1320.12190987 40.76479995 1321.03677368 38.42672729 C1322.26900722 35.27806689 1323.51383542 32.13467156 1324.76171875 28.9921875 C1325.27972549 27.65310585 1325.27972549 27.65310585 1325.80819702 26.28697205 C1329.84409139 16.21095086 1335.0418481 7.88016966 1345.04296875 3.00390625 C1353.72236797 -0.50478705 1362.60568329 -0.13898401 1371.82983398 -0.11352539 C1373.22986346 -0.113243 1374.62989309 -0.11340226 1376.02992249 -0.1139679 C1379.81452433 -0.11425385 1383.59909424 -0.10838974 1387.38368869 -0.10139394 C1391.34482583 -0.09512681 1395.30596377 -0.09455395 1399.2671051 -0.09336853 C1406.76089769 -0.09026511 1414.25467563 -0.08206507 1421.74846178 -0.07201904 C1430.28292162 -0.06082717 1438.81738217 -0.05533971 1447.35184753 -0.05032361 C1464.90124015 -0.03988161 1482.45061852 -0.02230135 1500 0 C1498.33378538 5.75735318 1496.56759255 11.39239985 1494.32714844 16.95800781 C1494.07770477 17.58117889 1493.82826111 18.20434998 1493.57125854 18.84640503 C1492.75467141 20.8836278 1491.93202661 22.91834451 1491.109375 24.953125 C1490.52141827 26.41705059 1489.93388353 27.88114573 1489.34674072 29.34539795 C1487.79778599 33.20545864 1486.24384941 37.06349295 1484.68859863 40.92102051 C1482.25436585 46.96117232 1479.82774678 53.00439104 1477.40053558 59.0473671 C1476.78664327 60.57563603 1476.1725924 62.10384128 1475.55838776 63.63198471 C1470.20278332 76.95854029 1464.91488778 90.31107328 1459.6496582 103.67355347 C1455.29929293 114.71373123 1450.93139666 125.74677948 1446.546875 136.7734375 C1446.23522652 137.55723785 1445.92357803 138.34103821 1445.60248566 139.14859009 C1443.65861696 144.03700723 1441.71399938 148.92512622 1439.76919556 153.81317139 C1437.99875243 158.26332018 1436.22890509 162.71370592 1434.45898438 167.1640625 C1431.47621178 174.66385646 1428.49311685 182.16352213 1425.50976562 189.66308594 C1421.08415583 200.78822073 1416.65918507 211.91360962 1412.234375 223.0390625 C1410.77946146 226.69718497 1409.32454526 230.35530638 1407.86962891 234.01342773 C1407.50964373 234.91854693 1407.14965855 235.82366613 1406.77876472 236.75621319 C1404.21765257 243.19565805 1401.65645014 249.63506701 1399.09521484 256.07446289 C1389.18666241 280.98642075 1379.28003274 305.8991425 1369.375 330.8125 C1368.86665745 332.09109076 1368.86665745 332.09109076 1368.34804535 333.39551163 C1363.23193582 346.26363688 1358.11595313 359.13181256 1353 372 C1347.54173936 385.72919557 1342.08343132 399.45837229 1336.625 413.1875 C1336.11689915 414.46548651 1336.11689915 414.46548651 1335.59853363 415.76929092 C1327.50176385 436.13442329 1319.40412295 456.49920889 1311.3046875 476.86328125 C1310.94209335 477.77494364 1310.57949921 478.68660603 1310.20591736 479.62589455 C1306.5478007 488.82339153 1302.88955719 498.02083802 1299.23086548 507.21810627 C1297.41686391 511.77818993 1295.60293882 516.33830401 1293.7890625 520.8984375 C1293.43008377 521.80091909 1293.07110504 522.70340069 1292.70124817 523.63323021 C1287.43850127 536.86437529 1282.17986671 550.09714977 1276.92362213 563.33087921 C1274.66181804 569.02515484 1272.39945793 574.71920959 1270.13711929 580.41327286 C1268.35030844 584.91068367 1266.5639218 589.40826197 1264.77856445 593.90625 C1260.78698214 603.96208552 1256.78715851 614.01456123 1252.77348328 624.06159973 C1252.03279205 625.91782095 1251.29447794 627.77499019 1250.55627441 629.63220215 C1249.31785182 632.74460278 1248.07084038 635.85338517 1246.8203125 638.9609375 C1246.48135956 639.81732819 1246.14240662 640.67371887 1245.79318237 641.55606079 C1241.46101457 652.2396611 1235.09114709 659.61254474 1224.37109375 664.2734375 C1217.2381754 666.4591423 1209.8757167 666.14812791 1202.49047852 666.14526367 C1200.62090485 666.15030159 1200.62090485 666.15030159 1198.71356201 666.15544128 C1195.31063661 666.16328975 1191.90777225 666.16661741 1188.50484204 666.16725707 C1186.37518826 666.16796999 1184.2455408 666.17010886 1182.1158886 666.17275429 C1174.67613191 666.18199142 1167.23639309 666.18609108 1159.79663086 666.18530273 C1152.87734991 666.18470186 1145.95814689 666.19525968 1139.03888565 666.2110464 C1133.08367567 666.22414624 1127.1284911 666.22948563 1121.17326683 666.22884732 C1117.62286917 666.22859313 1114.07254089 666.23140126 1110.52215767 666.24202538 C1106.56104644 666.25355644 1102.60004126 666.24894458 1098.63891602 666.24291992 C1097.47243027 666.24853943 1096.30594452 666.25415894 1095.10411072 666.25994873 C1086.32698053 666.22605815 1079.12238649 665.66553471 1072 660 C1068.3165825 655.99315376 1066.52123234 651.93082549 1064.61328125 646.9296875 C1064.28807999 646.09987869 1063.96287872 645.27006989 1063.62782288 644.41511536 C1062.9046177 642.56700113 1062.18543944 640.71730752 1061.46966553 638.86630249 C1059.83613025 634.64357202 1058.18195968 630.42900134 1056.52960205 626.21360779 C1055.59140825 623.81959207 1054.65423383 621.42517667 1053.71795654 619.03041077 C1047.70318639 603.65004571 1041.58499349 588.3107252 1035.47665405 572.96734619 C1033.3475828 567.6191671 1031.22010863 562.27035364 1029.09301758 556.92138672 C1028.55722659 555.57404764 1028.55722659 555.57404764 1028.01061153 554.19948959 C1027.28541215 552.37583808 1026.56021627 550.55218518 1025.83502388 548.72853088 C1024.37282131 545.0516552 1022.91041171 541.37486187 1021.44799709 537.69807053 C1015.15225217 521.86933989 1008.85872891 506.03972611 1002.56533146 490.21006203 C1000.18518131 484.22333221 997.80490377 478.23665305 995.42456055 472.25 C989.04057563 456.19395037 982.65704754 440.1377195 976.2749939 424.0809021 C973.66045164 417.50290004 971.04569739 410.92498225 968.43089867 404.34708214 C966.66013598 399.89242834 964.88948816 395.43772896 963.11914062 390.98291016 C954.77181853 369.97827002 946.4060495 348.98121456 938 328 C935.82531017 330.17468983 935.20596651 331.65208381 934.10253906 334.49487305 C933.73237671 335.44052628 933.36221436 336.3861795 932.98083496 337.36048889 C932.57981567 338.40039474 932.17879639 339.4403006 931.765625 340.51171875 C931.34011353 341.60193832 930.91460205 342.6921579 930.47619629 343.81541443 C929.307847 346.81028889 928.14391467 349.80683894 926.98143005 352.80399323 C924.99326724 357.92371468 922.99129621 363.03806924 920.99121857 368.15314484 C920.47367461 369.47687946 919.956317 370.80068696 919.43914032 372.12456512 C913.95679149 386.15714082 908.36363044 400.14445514 902.75 414.125 C895.84020964 431.34706368 889.0000622 448.59339978 882.26190186 465.88330078 C874.87651948 484.82780263 867.3822577 503.7285555 859.875 522.625 C859.28740321 524.1042781 858.69980757 525.58355666 858.11221313 527.06283569 C853.5306133 538.59580822 853.5306133 538.59580822 851.44361877 543.83311462 C850.92513025 545.13434451 850.40665165 546.43557836 849.88818359 547.73681641 C849.63944331 548.36104901 849.39070303 548.98528162 849.13442516 549.62843037 C847.59064612 553.50612939 846.06011832 557.38881297 844.53759766 561.27490234 C843.98895554 562.66786026 843.98895554 562.66786026 843.42922974 564.08895874 C842.77678689 565.74627374 842.12831416 567.40516101 841.4850769 569.06607056 C837.52007347 579.10287769 831.94274126 585.48729749 822 590 C815.3470202 592.47502979 808.88620885 592.28878893 801.84790039 592.2746582 C800.53324295 592.27976913 799.21858551 592.28488007 797.86408997 592.29014587 C794.27314423 592.30348617 790.68230407 592.30412016 787.0913384 592.30158257 C784.08697083 592.30050957 781.08262434 592.30540458 778.07826132 592.310188 C770.98746077 592.32126579 763.89671321 592.3217302 756.8059082 592.31567383 C749.5048636 592.30963354 742.20401168 592.32195032 734.90299994 592.3432439 C728.62082002 592.36088842 722.33870128 592.36685681 716.05649751 592.36360615 C712.31045469 592.36179784 708.56454938 592.36438421 704.81852913 592.37832069 C700.63939115 592.39328822 696.46064286 592.38390406 692.28149414 592.37231445 C691.04955322 592.37995819 689.8176123 592.38760193 688.54833984 592.39547729 C681.1266973 592.35002022 674.95769571 592.03333389 668.86053467 587.36022949 C664.21208912 581.87958376 661.60689462 576.2227512 659.078125 569.53125 C658.40485672 567.81331993 658.40485672 567.81331993 657.71798706 566.0606842 C656.73548782 563.54774423 655.75933467 561.03330931 654.79302979 558.51419067 C653.20729882 554.38147069 651.59747524 550.25838398 649.98388672 546.13647461 C648.21907007 541.62553797 646.45558955 537.11410695 644.6993103 532.59983826 C640.11855482 520.82876036 635.47745264 509.08249355 630.8046875 497.34765625 C630.45374716 496.4663032 630.10280682 495.58495014 629.74123192 494.67688942 C627.93661884 490.14561478 626.13110127 485.6147012 624.32516479 481.08395386 C620.99343184 472.72435801 617.66848084 464.36206404 614.34280968 456.00005531 C612.83200728 452.20151438 611.32087608 448.40310429 609.80974674 444.60469341 C605.0113673 432.54331375 600.21429946 420.48141267 595.41759491 408.41936684 C594.20006504 405.3577113 592.98251331 402.29606445 591.76495361 399.23442078 C591.36821693 398.23679624 590.97148026 397.2391717 590.56272125 396.21131611 C589.76958494 394.21691534 588.97644835 392.22251467 588.18331146 390.22811413 C586.25863832 385.38835856 584.33401135 380.54858464 582.40948486 375.70877075 C580.61171754 371.18774431 578.81380541 366.66677548 577.01579094 362.14584732 C576.36083624 360.49895456 575.70593295 358.85204136 575.05108833 357.20510483 C571.04585268 347.13199964 567.03014671 337.06316576 563 327 C559.5928215 334.31563296 556.46099889 341.69178639 553.54296875 349.21484375 C553.12794098 350.2767543 552.71291321 351.33866486 552.28530884 352.43275452 C551.38838877 354.7277441 550.49267457 357.02320526 549.59805298 359.3190918 C547.13334077 365.64167239 544.65696999 371.95967973 542.1796875 378.27734375 C541.79457095 379.2597661 541.79457095 379.2597661 541.40167427 380.26203537 C535.9362582 394.20047875 530.38480922 408.10395906 524.8125 422 C522.79373983 427.03624567 520.77544657 432.07267808 518.7578125 437.109375 C518.49539009 437.76443338 518.23296768 438.41949177 517.96259308 439.09440041 C510.70964177 457.2022112 503.50504548 475.32927513 496.29852295 493.45560074 C495.18969273 496.24448493 494.08071284 499.03330954 492.97167969 501.82211304 C485.6162443 520.31832967 478.26346738 538.81559879 470.91834164 557.31591225 C467.7083865 565.40084071 464.49723681 573.48529409 461.28533268 581.56944847 C459.00785999 587.30203619 456.73211427 593.03530528 454.45773315 598.76912022 C453.04159867 602.33805835 451.62381325 605.90633903 450.20560837 609.47445488 C449.55722369 611.10670389 448.90949316 612.73921297 448.26253128 614.37202644 C446.49733632 618.82652156 444.71904097 623.27534203 442.92120743 627.71677017 C442.27942236 629.30744647 441.64201444 630.89989285 441.00799179 632.49367905 C439.99190287 635.04259644 438.95981633 637.58454807 437.92456055 640.12573242 C437.46936019 641.28034328 437.46936019 641.28034328 437.00496387 642.45827961 C433.2167466 651.64728709 427.90046816 658.42957985 419 663 C410.66390953 665.85865326 402.6102065 666.43410597 393.86279297 666.38818359 C392.6091394 666.39344055 391.35548584 666.39869751 390.06384277 666.40411377 C386.66296783 666.41496754 383.26264881 666.41254831 379.86180639 666.40297651 C376.28173493 666.39531004 372.70168507 666.4024444 369.12161255 666.40713501 C363.11504925 666.41257102 357.10859714 666.40545644 351.10205078 666.39111328 C344.18094326 666.37477595 337.26010079 666.38009172 330.33899963 666.3965925 C324.36835188 666.41025135 318.39778343 666.41210608 312.4271251 666.40427649 C308.87336839 666.39962594 305.31973587 666.39890254 301.7659874 666.40888596 C297.80336117 666.41924357 293.8410268 666.40484662 289.87841797 666.38818359 C288.71762726 666.39425629 287.55683655 666.40032898 286.36087036 666.40658569 C278.64864643 666.34674468 271.09150278 665.72672887 264.51953125 661.34692383 C258.73731134 654.73359251 255.91539728 647.38497552 252.93685913 639.24459839 C251.60746186 635.61609171 250.23013882 632.0062427 248.85649109 628.39430237 C248.10057016 626.40603733 247.34681208 624.41694885 246.595047 622.42710876 C242.42924608 611.42087 238.04512005 600.50422968 233.65438843 589.58621216 C231.08660855 583.19916221 228.52784264 576.80850325 225.96875 570.41796875 C225.69710714 569.73980543 225.42546429 569.06164211 225.14558983 568.36292839 C217.45912776 549.1720727 209.82466377 529.96051354 202.1875 510.75 C201.44105456 508.87251617 200.69460476 506.99503408 199.94815063 505.11755371 C196.9163991 497.4919847 193.88482177 489.86634647 190.85359192 482.24057007 C185.61619836 469.0647056 180.3771337 455.88950681 175.13671875 442.71484375 C174.77424482 441.80356091 174.4117709 440.89227806 174.03831291 439.95338058 C172.57736435 436.28047091 171.11640727 432.60756462 169.65543652 428.93466377 C156.92653288 396.93396471 144.20119347 364.9318492 131.47782898 332.92894745 C120.52891264 305.38932543 109.57789975 277.85053801 98.625 250.3125 C98.26264503 249.40145634 97.90029007 248.49041267 97.52695465 247.55176163 C92.01805807 233.7011393 86.50904222 219.85056441 81 206 C78.05728336 198.6015658 75.11457304 191.2031291 72.171875 183.8046875 C71.80789612 182.88958405 71.44391724 181.97448059 71.06890869 181.03164673 C67.05685614 170.94466035 63.04490389 160.8576341 59.03320312 150.77050781 C58.67574509 149.87170647 58.31828705 148.97290512 57.94999695 148.04686737 C56.50771366 144.42034693 55.06543335 140.79382531 53.62316895 137.16729736 C49.19206695 126.02544687 44.7604764 114.88379092 40.32819939 103.7424078 C37.33431398 96.21664179 34.34081714 88.6907213 31.34758186 81.16469669 C29.59192649 76.75042287 27.83609806 72.3362181 26.07977295 67.92221069 C22.31956981 58.4717649 18.56289916 49.01993059 14.81213379 39.56573486 C13.57165502 36.43929643 12.32952686 33.31351951 11.08630371 30.18817139 C9.53160001 26.27934789 7.98032808 22.36917901 6.43154526 18.45800591 C5.8518167 16.99561519 5.27091647 15.53368835 4.68878555 14.07225227 C3.89334878 12.07471988 3.10214512 10.07556263 2.31201172 8.07592773 C1.8636496 6.94613998 1.41528748 5.81635223 0.95333862 4.65232849 C0 2 0 2 0 0 Z " fill="#323B7F" transform="translate(150,567)"/>
<path d="M0 0 C18.34178326 -0.04679503 36.68355096 -0.08202555 55.02538109 -0.10362434 C63.54249446 -0.11392119 72.05957065 -0.127951 80.57666016 -0.15087891 C88.00325217 -0.17086162 95.42981726 -0.183728 102.85643542 -0.18817699 C106.78595034 -0.19077612 110.71538824 -0.19685182 114.64487839 -0.21146011 C118.34992011 -0.22512128 122.0548537 -0.22920554 125.75991821 -0.22621536 C127.75472397 -0.22702056 129.74951819 -0.23773726 131.74429321 -0.24884033 C143.85483651 -0.22129022 155.16926432 1.06107892 164.57632446 9.41363525 C170.24781312 15.73322804 173.43945058 23.93642652 176.4140625 31.765625 C176.8166478 32.80138168 177.21923309 33.83713837 177.63401794 34.90428162 C178.50930964 37.15835707 179.38060335 39.41398825 180.24832153 41.67098999 C182.42175913 47.32136887 184.62183154 52.96135966 186.82019997 58.60207176 C187.60599759 60.6190669 188.39076464 62.63646102 189.17546082 64.65388489 C194.75571143 78.98941143 200.47517423 93.26853441 206.2032814 107.54547501 C208.88034189 114.21936509 211.55331462 120.89489458 214.2265625 127.5703125 C214.53427645 128.33861956 214.84199039 129.10692661 215.15902901 129.8985157 C223.45188198 150.60655326 231.69453967 171.33456422 239.9375 192.0625 C240.72239942 194.03611347 241.50730136 196.00972593 242.29220581 197.9833374 C245.46929485 205.97215411 248.64617195 213.96105507 251.82267761 221.95010376 C257.33188772 235.80596219 262.84295175 249.66108188 268.35546875 263.515625 C268.7392783 264.48025728 269.12308784 265.44488956 269.51852798 266.43875313 C271.45137676 271.2965898 273.38425086 276.15441641 275.31713867 281.01223755 C279.14259481 290.62657656 282.96787467 300.24098569 286.79296875 309.85546875 C287.16989742 310.80288877 287.5468261 311.7503088 287.93517685 312.72643852 C293.42928684 326.53623266 298.9217519 340.34668028 304.41316986 354.15754509 C305.60827682 357.16319528 306.8034284 360.16882773 307.99859619 363.17445374 C308.38873146 364.15557475 308.77886673 365.13669577 309.18082428 366.14754772 C309.96096907 368.10947318 310.74111534 370.07139806 311.52126312 372.03332233 C313.38256984 376.71423958 315.24373489 381.39521305 317.10455322 386.07632446 C320.77289386 395.30435752 324.44261247 404.53183754 328.11669922 413.75758457 C329.7577297 417.87846695 331.39761921 421.99979754 333.03546143 426.12194824 C334.68935042 430.28437964 336.34571464 434.44581776 338.00387764 438.60654831 C338.6241956 440.16433534 339.24361863 441.72247906 339.86210442 443.28099442 C340.70719838 445.41013115 341.55545761 447.53797907 342.40454102 449.66552734 C342.8835939 450.8696225 343.36264679 452.07371765 343.85621643 453.31430054 C344.7483334 455.87283458 344.7483334 455.87283458 346 457 C361.77460679 417.62223315 377.51549492 378.2312242 393.1875 338.8125 C393.54935143 337.90239418 393.91120285 336.99228836 394.28401947 336.05460358 C399.48257484 322.97939021 404.67959928 309.90356854 409.87625122 296.82759857 C412.88086895 289.26732092 415.88561681 281.707095 418.89057732 274.14695358 C419.64016398 272.26104192 420.38972278 270.37511919 421.13925362 268.48918533 C425.1907526 258.29507956 429.24444223 248.10185576 433.30444336 237.91113281 C434.73820028 234.31188153 436.17184741 230.71258654 437.60546875 227.11328125 C437.95641539 226.23232159 438.30736202 225.35136192 438.66894341 224.44370651 C443.19556844 213.07868511 447.69739938 201.70424919 452.17359924 190.3192749 C454.44139615 184.5522567 456.71896446 178.78911552 458.99947643 173.02711487 C460.80046119 168.47448485 462.58894421 163.91722454 464.36755657 159.35581112 C465.45418019 156.57831107 466.55316098 153.80582673 467.65567589 151.03460121 C468.39098892 149.17573601 469.11145533 147.31101867 469.83125305 145.4460907 C473.96894523 135.1106164 479.41826736 125.9496089 489.84593868 121.15043545 C496.72287434 118.58634163 503.28679592 118.56964908 510.56274414 118.59594727 C511.91068586 118.59023431 513.25862274 118.58326649 514.60655212 118.57514954 C518.24287463 118.55730873 521.87895465 118.55836876 525.51530766 118.56409192 C528.55954974 118.56719582 531.60374605 118.56107831 534.64798158 118.55505317 C541.83184792 118.54104051 549.01559524 118.54254306 556.19946289 118.55395508 C563.5949049 118.56544401 570.98998459 118.55134041 578.3853789 118.5245586 C584.75253754 118.50236932 591.1195827 118.49577115 597.48677725 118.50163502 C601.28200974 118.50499679 605.07700982 118.50264126 608.87220955 118.48538399 C612.44045173 118.46986416 616.00815836 118.4739253 619.57637978 118.49268913 C621.49991323 118.49810317 623.42347104 118.48390089 625.34695435 118.46899414 C633.11929687 118.53493441 638.84110671 119.18761131 644.69411278 124.55296516 C648.35269158 128.50304745 650.51742208 132.67168604 652.43041992 137.65991211 C652.72698329 138.39936192 653.02354666 139.13881172 653.32909679 139.9006691 C654.30942425 142.3545394 655.26985812 144.81569537 656.23046875 147.27734375 C656.93137029 149.04315196 657.63352086 150.80846483 658.33682251 152.57331848 C660.23833355 157.35473168 662.12284296 162.14268388 664.00452042 166.93193054 C666.00083636 172.00392528 668.01320288 177.06954279 670.02416992 182.13574219 C673.37101597 190.57237806 676.70932703 199.0123429 680.04199219 207.45458984 C685.42732158 221.09405388 690.84956281 234.71870595 696.27806091 248.34103394 C697.00920767 250.17591495 697.74033263 252.01080465 698.47143555 253.84570312 C698.83117179 254.74852083 699.19090803 255.65133854 699.56154537 256.58151436 C702.08696882 262.92197372 704.6036249 269.26586861 707.11645508 275.61132812 C708.54464815 279.21631894 709.9732859 282.82113316 711.40234375 286.42578125 C711.75350817 287.31161015 712.10467258 288.19743904 712.46647835 289.11011124 C717.21432634 301.07859521 722.02884487 313.01811756 726.90122986 324.93643188 C729.512086 331.32288222 732.10518106 337.71649617 734.69429493 344.1117878 C736.77864553 349.25515981 738.88719493 354.38767987 741.01484966 359.51327801 C742.31042153 362.65089307 743.58231755 365.79770023 744.84777641 368.94756508 C745.4353872 370.39606204 746.03285913 371.84060502 746.64100838 373.28059959 C751.77776874 385.4643754 751.77776874 385.4643754 749.99609375 390.9921875 C749.364744 392.34453232 748.70117043 393.68250273 748 395 C747.34281982 396.75389038 747.34281982 396.75389038 746.67236328 398.54321289 C746.00309814 400.24078735 746.00309814 400.24078735 745.3203125 401.97265625 C745.07123642 402.60562119 744.82216034 403.23858612 744.5655365 403.89073181 C743.7545331 405.94898796 742.93986213 408.00576882 742.125 410.0625 C741.55129744 411.51625494 740.97764933 412.97003137 740.40405273 414.42382812 C736.09204508 425.33265912 731.66712439 436.19372256 727.22360229 447.04946899 C723.96352395 455.02476228 720.81049321 463.00824094 718.03564453 471.16650391 C714.05836261 482.80931177 709.3603504 494.22238018 704.1484375 505.36328125 C702.25604083 509.70806952 700.74410014 514.18377062 699.18359375 518.65625 C697.89490614 522.29689883 696.48655797 525.87053068 695.02734375 529.4453125 C693.82839431 532.4267305 692.69778724 535.43128769 691.5625 538.4375 C690.00600182 542.51200287 688.35223508 546.48916191 686.5 550.4375 C684.581417 554.55645787 682.9942351 558.70874357 681.5 563 C679.34414743 569.18960188 676.78220777 575.07227211 674 581 C672.97961442 583.32534084 671.98776419 585.6605585 671 588 C663.45295712 582.96863808 660.99228958 573.75295841 657.80859375 565.625 C657.39998611 564.5909201 656.99137848 563.55684021 656.57038879 562.49142456 C655.67016716 560.21216151 654.77157431 557.93225464 653.87438965 555.65179443 C652.39129709 551.88257726 650.90396678 548.11505917 649.41503906 544.34814453 C649.15412161 543.68800669 648.89320415 543.02786884 648.62438011 542.34772682 C648.0831888 540.97850434 647.54198154 539.60928816 647.00075912 538.24007797 C646.15367094 536.09663379 645.30703645 533.95301083 644.46047974 531.80935669 C637.45676122 514.07789086 630.40425821 496.36582384 623.35517883 478.65235519 C621.50501414 474.00282304 619.65533985 469.35309581 617.80566406 464.70336914 C617.05526808 462.81703156 616.30487135 460.93069428 615.55447388 459.0443573 C614.99382421 457.63500443 614.99382421 457.63500443 614.4218483 456.19717979 C613.28175363 453.33129049 612.14160312 450.46542341 611.00143433 447.5995636 C605.80291106 434.53279574 600.60559707 421.46554737 595.40904617 408.397995 C594.19226011 405.33819915 592.97545205 402.27841205 591.75863647 399.21862793 C585.15126026 382.6038055 585.15126026 382.6038055 582.41003418 375.71014404 C580.61212657 371.1887644 578.81407302 366.66744282 577.01591682 362.14616203 C576.36090858 360.49913582 575.70595186 358.85208911 575.051054 357.205019 C571.04582982 347.13194241 567.03013526 337.06313715 563 327 C559.5928215 334.31563296 556.46099889 341.69178639 553.54296875 349.21484375 C553.12794098 350.2767543 552.71291321 351.33866486 552.28530884 352.43275452 C551.38838877 354.7277441 550.49267457 357.02320526 549.59805298 359.3190918 C547.13334077 365.64167239 544.65696999 371.95967973 542.1796875 378.27734375 C541.79457095 379.2597661 541.79457095 379.2597661 541.40167427 380.26203537 C535.9362582 394.20047875 530.38480922 408.10395906 524.8125 422 C522.79373983 427.03624567 520.77544657 432.07267808 518.7578125 437.109375 C518.49539009 437.76443338 518.23296768 438.41949177 517.96259308 439.09440041 C510.70964177 457.2022112 503.50504548 475.32927513 496.29852295 493.45560074 C495.18969273 496.24448493 494.08071284 499.03330954 492.97167969 501.82211304 C485.6162443 520.31832967 478.26346738 538.81559879 470.91834164 557.31591225 C467.7083865 565.40084071 464.49723681 573.48529409 461.28533268 581.56944847 C459.00785999 587.30203619 456.73211427 593.03530528 454.45773315 598.76912022 C453.04159867 602.33805835 451.62381325 605.90633903 450.20560837 609.47445488 C449.55722369 611.10670389 448.90949316 612.73921297 448.26253128 614.37202644 C446.49733632 618.82652156 444.71904097 623.27534203 442.92120743 627.71677017 C442.27942236 629.30744647 441.64201444 630.89989285 441.00799179 632.49367905 C439.99190287 635.04259644 438.95981633 637.58454807 437.92456055 640.12573242 C437.46936019 641.28034328 437.46936019 641.28034328 437.00496387 642.45827961 C433.2167466 651.64728709 427.90046816 658.42957985 419 663 C410.66390953 665.85865326 402.6102065 666.43410597 393.86279297 666.38818359 C392.6091394 666.39344055 391.35548584 666.39869751 390.06384277 666.40411377 C386.66296783 666.41496754 383.26264881 666.41254831 379.86180639 666.40297651 C376.28173493 666.39531004 372.70168507 666.4024444 369.12161255 666.40713501 C363.11504925 666.41257102 357.10859714 666.40545644 351.10205078 666.39111328 C344.18094326 666.37477595 337.26010079 666.38009172 330.33899963 666.3965925 C324.36835188 666.41025135 318.39778343 666.41210608 312.4271251 666.40427649 C308.87336839 666.39962594 305.31973587 666.39890254 301.7659874 666.40888596 C297.80336117 666.41924357 293.8410268 666.40484662 289.87841797 666.38818359 C288.71762726 666.39425629 287.55683655 666.40032898 286.36087036 666.40658569 C278.64864643 666.34674468 271.09150278 665.72672887 264.51953125 661.34692383 C258.73731134 654.73359251 255.91539728 647.38497552 252.93685913 639.24459839 C251.60746186 635.61609171 250.23013882 632.0062427 248.85649109 628.39430237 C248.10057016 626.40603733 247.34681208 624.41694885 246.595047 622.42710876 C242.42924608 611.42087 238.04512005 600.50422968 233.65438843 589.58621216 C231.08660855 583.19916221 228.52784264 576.80850325 225.96875 570.41796875 C225.69710714 569.73980543 225.42546429 569.06164211 225.14558983 568.36292839 C217.45912776 549.1720727 209.82466377 529.96051354 202.1875 510.75 C201.44105456 508.87251617 200.69460476 506.99503408 199.94815063 505.11755371 C196.9163991 497.4919847 193.88482177 489.86634647 190.85359192 482.24057007 C185.61619836 469.0647056 180.3771337 455.88950681 175.13671875 442.71484375 C174.77424482 441.80356091 174.4117709 440.89227806 174.03831291 439.95338058 C172.57736435 436.28047091 171.11640727 432.60756462 169.65543652 428.93466377 C156.92653288 396.93396471 144.20119347 364.9318492 131.47782898 332.92894745 C120.52891264 305.38932543 109.57789975 277.85053801 98.625 250.3125 C98.26264503 249.40145634 97.90029007 248.49041267 97.52695465 247.55176163 C92.01805807 233.7011393 86.50904222 219.85056441 81 206 C78.05728336 198.6015658 75.11457304 191.2031291 72.171875 183.8046875 C71.80789612 182.88958405 71.44391724 181.97448059 71.06890869 181.03164673 C67.05685614 170.94466035 63.04490389 160.8576341 59.03320312 150.77050781 C58.67574509 149.87170647 58.31828705 148.97290512 57.94999695 148.04686737 C56.50771366 144.42034693 55.06543335 140.79382531 53.62316895 137.16729736 C49.19206695 126.02544687 44.7604764 114.88379092 40.32819939 103.7424078 C37.33431398 96.21664179 34.34081714 88.6907213 31.34758186 81.16469669 C29.59192649 76.75042287 27.83609806 72.3362181 26.07977295 67.92221069 C22.31956981 58.4717649 18.56289916 49.01993059 14.81213379 39.56573486 C13.57165502 36.43929643 12.32952686 33.31351951 11.08630371 30.18817139 C9.53160001 26.27934789 7.98032808 22.36917901 6.43154526 18.45800591 C5.8518167 16.99561519 5.27091647 15.53368835 4.68878555 14.07225227 C3.89334878 12.07471988 3.10214512 10.07556263 2.31201172 8.07592773 C1.8636496 6.94613998 1.41528748 5.81635223 0.95333862 4.65232849 C0 2 0 2 0 0 Z " fill="#2F387C" transform="translate(150,567)"/>
<path d="M0 0 C1.15928513 -0.00708481 2.31857025 -0.01416962 3.51298523 -0.02146912 C5.39973465 -0.01775299 5.39973465 -0.01775299 7.32460022 -0.01396179 C8.67371909 -0.01831294 10.02283549 -0.02349743 11.37194824 -0.02944946 C15.02486701 -0.04280703 18.67768211 -0.0434218 22.33062053 -0.04088616 C25.38473862 -0.03981431 28.43883592 -0.04470525 31.49294955 -0.04949158 C38.70019537 -0.06057541 45.90738907 -0.06103042 53.11463928 -0.05497742 C60.54008181 -0.0489369 67.96533489 -0.06125311 75.3907451 -0.08254749 C81.77564827 -0.10018198 88.16049123 -0.10616196 94.54541785 -0.10290974 C98.35459998 -0.10109979 102.16364693 -0.10370426 105.97280693 -0.11762428 C109.55569446 -0.13022831 113.13828726 -0.12823446 116.72117043 -0.11521339 C118.65565896 -0.11173226 120.5901566 -0.12300642 122.52461243 -0.13478088 C128.815075 -0.09681248 133.54086518 0.18717746 139.08656311 3.26069641 C136.96503715 11.14895796 134.03874864 18.66473579 130.96644592 26.22102356 C129.39283378 30.09239761 127.83481781 33.97006291 126.27406311 37.84663391 C125.9378595 38.6805365 125.60165588 39.51443909 125.25526428 40.37361145 C121.54957466 49.57344926 117.90815013 58.7985133 114.26597595 68.02363586 C107.36567481 85.49980414 100.41494783 102.95506614 93.42329407 120.3948822 C85.95997691 139.01443421 78.53513653 157.64819177 71.21156311 176.32319641 C70.85246857 177.2363562 70.49337402 178.14951599 70.12339783 179.09034729 C66.36091344 188.66414942 62.70221133 198.26223105 59.22718811 207.94429016 C55.12875731 219.33613849 50.6449627 230.56210078 46.11332703 241.78739929 C43.66476742 247.85445163 41.22925535 253.92673795 38.79359436 259.99897766 C38.30362473 261.22006729 37.81365509 262.44115692 37.30883789 263.69924927 C32.9433363 274.59150901 28.65748194 285.51371743 24.39906311 296.44819641 C16.89380956 315.70856984 9.28421782 334.92655327 1.64906311 354.13569641 C1.35920532 354.86496212 1.06934753 355.59422783 0.77070618 356.3455925 C-1.53933294 362.15739574 -3.84948632 367.96915361 -6.15997314 373.78077888 C-12.40037701 389.47775064 -18.61786874 405.18375308 -24.82725525 420.89302063 C-26.18920598 424.33863422 -27.55373351 427.78320895 -28.92027283 431.227005 C-30.31877307 434.75218533 -31.70507929 438.28193033 -33.08628845 441.81391907 C-33.79807891 443.62174768 -34.50998898 445.42952922 -35.22203064 447.23725891 C-35.54338486 448.06548157 -35.86473907 448.89370422 -36.1958313 449.74702454 C-40.26595387 460.03792871 -45.67907687 466.61563718 -55.91343689 471.26069641 C-62.56641669 473.7357262 -69.02722804 473.54948534 -76.0655365 473.53535461 C-77.38019394 473.54046555 -78.69485138 473.54557648 -80.04934692 473.55084229 C-83.64029266 473.56418258 -87.23113282 473.56481657 -90.82209849 473.56227899 C-93.82646606 473.56120598 -96.83081255 473.56610099 -99.83517557 473.57088441 C-106.92597612 473.5819622 -114.01672368 473.58242661 -121.10752869 473.57637024 C-128.40857329 473.57032996 -135.70942521 473.58264673 -143.01043695 473.60394031 C-149.29261687 473.62158483 -155.57473561 473.62755322 -161.85693938 473.62430257 C-165.60298219 473.62249425 -169.34888751 473.62508062 -173.09490776 473.63901711 C-177.27404574 473.65398463 -181.45279403 473.64460047 -185.63194275 473.63301086 C-186.86388367 473.6406546 -188.09582458 473.64829834 -189.36509705 473.65617371 C-195.93784661 473.61591604 -200.93319621 473.0466469 -206.91343689 470.26069641 C-204.72377045 461.18974601 -201.12647126 452.52589445 -197.16343689 444.10444641 C-195.23641266 439.72046628 -193.73841429 435.19589784 -192.16734314 430.67475891 C-191.02843412 427.57380414 -189.75812769 424.62221145 -188.35093689 421.63569641 C-186.59244814 417.89959259 -185.17219123 414.19367184 -183.91343689 410.26069641 C-182.65468254 406.32772099 -181.23442564 402.62180023 -179.47593689 398.88569641 C-176.99761672 393.61831868 -175.07832602 388.23059711 -173.16343689 382.73725891 C-171.64195465 378.50563642 -169.91654966 374.38309751 -168.15953064 370.24507141 C-166.44755469 366.14491584 -164.87486325 361.99563552 -163.29356384 357.84370422 C-161.92624136 354.29393865 -160.52457021 350.7601286 -159.10874939 347.22944641 C-158.84857529 346.58017685 -158.58840118 345.93090729 -158.32034302 345.26196289 C-157.51854039 343.26134005 -156.71605647 341.26099162 -155.91343689 339.26069641 C-149.92025194 324.31602752 -143.93502206 309.36878902 -138.03843689 294.38569641 C-137.39708801 292.75918152 -137.39708801 292.75918152 -136.74278259 291.09980774 C-134.44681663 285.25281899 -132.20510591 279.38865356 -130.01109314 273.50288391 C-126.85559564 265.04627986 -123.55197413 256.6514116 -120.22593689 248.26069641 C-119.57705162 246.62060806 -118.92829259 244.98046975 -118.27964783 243.34028625 C-116.52663096 238.90858742 -114.77185997 234.47758507 -113.01676941 230.04670715 C-111.1362149 225.29814318 -109.25735057 220.5489105 -107.37828064 215.79975891 C-103.77950695 206.7049896 -100.179262 197.61080349 -96.57839966 188.51686096 C-92.58378085 178.4284279 -88.5902754 168.3395543 -84.59690857 158.25062561 C-82.61913321 153.25396333 -80.64128111 148.25733143 -78.66343689 143.26069641 C-77.87176986 141.26069656 -77.08010319 139.26069656 -76.28843689 137.26069641 C-71.53843689 125.2606964 -71.53843689 125.2606964 -70.35110474 122.26113892 C-69.55886173 120.25967057 -68.76663559 118.25819555 -67.97442627 116.25671387 C-66.00421544 111.27912484 -64.03371847 106.30164949 -62.06260681 101.32441711 C-58.39315961 92.05786286 -54.72645215 82.79025387 -51.06959534 73.51872253 C-49.36580107 69.19945427 -47.66042605 64.88081089 -45.9549408 60.56221008 C-45.15223575 58.52833983 -44.35028186 56.49417291 -43.54917908 54.45967102 C-41.37127727 48.92889776 -39.18120818 43.40333608 -36.96672058 37.88710022 C-36.25877149 36.12180166 -35.55402695 34.35521491 -34.8523407 32.5874176 C-33.82645304 30.01109124 -32.78434833 27.44191075 -31.73765564 24.87397766 C-31.44026993 24.12005234 -31.14288422 23.36612701 -30.83648682 22.58935547 C-27.87256164 15.41459019 -23.85705252 8.73584226 -16.91343689 4.88569641 C-16.10906189 4.42421204 -15.30468689 3.96272766 -14.47593689 3.48725891 C-9.62593415 1.1657637 -5.38287923 0.01101689 0 0 Z " fill="#EF9C39" transform="translate(1027.9134368896484,685.7393035888672)"/>
<path d="M0 0 C5.24246446 3.37455158 6.83298068 7.29766358 9.0625 12.8671875 C9.4426123 13.78531219 9.82272461 14.70343689 10.21435547 15.64938354 C11.49408302 18.75930216 12.74906483 21.87839495 14 25 C14.44230957 26.09671021 14.88461914 27.19342041 15.34033203 28.32336426 C18.64687665 36.53161891 21.90601856 44.75821052 25.15604401 52.98894119 C26.61322416 56.67707486 28.07403959 60.363768 29.53466797 64.05053711 C31.40569414 68.77357566 33.27657217 73.49667216 35.14620972 78.22026062 C42.10787514 95.8076103 49.09845799 113.38344288 56.08950424 130.95912933 C58.88343509 137.98343393 61.67669622 145.00800489 64.47002983 152.032547 C65.17530433 153.80612208 65.88059228 155.57969182 66.58589363 157.35325623 C71.50470981 169.72222939 76.42097793 182.09221231 81.33530235 194.46297073 C82.37883012 197.08965213 83.42251465 199.71627117 84.46626282 202.34286499 C84.81009223 203.20811232 85.15392164 204.07335964 85.50817013 204.96482658 C86.20126105 206.70897641 86.89435911 208.45312339 87.58746433 210.19726753 C89.30231548 214.51284664 91.01661428 218.82864377 92.72976685 223.14489746 C99.9924301 241.44302897 107.2810011 259.72985203 114.65502739 277.98343277 C115.73058093 280.64703761 116.80478942 283.31118029 117.87843323 285.97555542 C118.22639419 286.83905546 118.57435514 287.7025555 118.93286037 288.59222221 C119.62616661 290.31289298 120.31940269 292.03359202 121.01256657 293.75432014 C123.01671256 298.72695311 125.03021484 303.69566322 127.05088425 308.66160297 C128.28575683 311.70226526 129.51216748 314.74628759 130.73631668 317.79128075 C131.30321885 319.19613082 131.87375089 320.59952248 132.4481926 322.00130653 C133.23164487 323.91423373 134.00215529 325.83189656 134.76977539 327.7512207 C135.41989342 329.35426811 135.41989342 329.35426811 136.08314514 330.98970032 C137.98949925 337.24881223 136.74350748 341.20815088 134 347 C131.79178626 351.99248323 129.88101062 357.03436398 128.03515625 362.171875 C126.45529159 366.4881845 124.72778864 370.74127096 123 375 C122.33243423 376.66630674 121.66576979 378.33297486 121 380 C117 390 113 400 109 410 C108.67 410.82628906 108.34 411.65257812 108 412.50390625 C107.33692779 414.15899665 106.67029709 415.81266616 106 417.46484375 C104.22841278 421.84536997 102.53531855 426.24033962 100.9375 430.6875 C99.84502247 433.72595313 98.72890219 436.72803666 97.4375 439.6875 C95.81921538 443.41659064 94.40517037 447.18596615 93 451 C92.34 451 91.68 451 91 451 C91.33 451.99 91.66 452.98 92 454 C91.67 454.66 91.34 455.32 91 456 C90.34 456 89.68 456 89 456 C89.33 456.99 89.66 457.98 90 459 C89.36328125 460.91015625 89.36328125 460.91015625 88.3125 463.0625 C86.29453355 467.31489297 84.57607027 471.622754 82.9296875 476.03125 C82 478 82 478 80 479 C80.33 479.99 80.66 480.98 81 482 C80.67 482.66 80.34 483.32 80 484 C79.34 484 78.68 484 78 484 C78.33 484.99 78.66 485.98 79 487 C78.67 487.66 78.34 488.32 78 489 C77.34 489 76.68 489 76 489 C76 490.65 76 492.3 76 494 C75.34 494 74.68 494 74 494 C74 495.65 74 497.3 74 499 C73.34 499 72.68 499 72 499 C72.0825 499.639375 72.165 500.27875 72.25 500.9375 C71.94260798 504.70305222 70.62173339 507.38414337 69.0234375 510.7734375 C67.79228317 513.45190303 66.86631818 516.18446592 66 519 C65.34 519 64.68 519 64 519 C64.061875 519.680625 64.12375 520.36125 64.1875 521.0625 C63.94687297 524.83232343 62.57824948 527.59098112 61 531 C60.67 531.99 60.34 532.98 60 534 C59.34 534 58.68 534 58 534 C58.33 534.99 58.66 535.98 59 537 C58.01 537.33 57.02 537.66 56 538 C51.91449922 533.54344764 49.63895872 529.46010041 47.515625 523.83203125 C47.19183868 523.00363739 46.86805237 522.17524353 46.53445435 521.32174683 C45.81604868 519.48006003 45.10289626 517.63631786 44.39422607 515.79086304 C42.77560183 511.57766537 41.13013603 507.3750735 39.48727417 503.17127991 C38.55426131 500.78290621 37.6226134 498.39399896 36.69216919 496.00462341 C30.70247432 480.62682167 24.5835576 465.30028584 18.47766113 449.96835327 C16.34779706 444.61990644 14.22002466 439.27062909 12.09277344 433.92114258 C11.73559486 433.02293195 11.37841629 432.12472132 11.01041412 431.19929218 C10.28525711 429.37568647 9.56010607 427.55207838 8.83496094 425.72846794 C7.37281361 422.05160361 5.91041348 418.37483985 4.44800568 414.69807911 C-1.84776622 398.86935521 -8.14126972 383.03972956 -14.43466854 367.21006203 C-16.81481869 361.22333221 -19.19509623 355.23665305 -21.57543945 349.25 C-27.95942437 333.19395037 -34.34295246 317.1377195 -40.7250061 301.0809021 C-43.33954836 294.50290004 -45.95430261 287.92498225 -48.56910133 281.34708214 C-50.67707877 276.04410744 -52.78481545 270.74103717 -54.89223671 265.43784142 C-55.87959062 262.95354502 -56.86732596 260.4694005 -57.85507202 257.98526001 C-59.11498965 254.81623937 -60.37282515 251.64640431 -61.62905884 248.47592163 C-64.29322418 241.75819889 -66.96937646 235.04691346 -69.72161961 228.36469936 C-70.86782812 225.58156818 -72.00614609 222.79523597 -73.14447594 220.00887489 C-73.92313313 218.11425258 -74.71475439 216.22542762 -75.5070343 214.33647156 C-80.02247464 203.27928241 -79.16303921 197.35910988 -74.75 186.47265625 C-74.30547989 185.3490419 -73.86095978 184.22542755 -73.40296936 183.06776428 C-72.19737684 180.02714519 -70.9813304 176.99097796 -69.76033401 173.95652008 C-68.47925836 170.76531337 -67.2119608 167.56864286 -65.94311523 164.37255859 C-63.42607134 158.03883771 -60.89403248 151.71122129 -58.3571167 145.38543701 C-56.49468925 140.73946161 -54.63983721 136.09047788 -52.78515625 131.44140625 C-50.92333304 126.77772969 -49.05925709 122.11497508 -47.18920898 117.45458984 C-41.52647139 103.34187285 -35.91397182 89.2093524 -30.31007767 75.07318497 C-29.56702582 73.1989159 -28.82380533 71.32471379 -28.08053589 69.45053101 C-22.96904236 56.56068235 -17.86547096 43.6677968 -12.78515625 30.765625 C-11.98562368 28.736724 -11.18606397 26.7078337 -10.38647461 24.67895508 C-8.90904947 20.92995483 -7.43508934 17.17961779 -5.96313477 13.4284668 C-5.31148339 11.77387745 -4.65971684 10.11933345 -4.0078125 8.46484375 C-3.71419327 7.713703 -3.42057404 6.96256226 -3.11805725 6.18865967 C-1.11367246 1.11367246 -1.11367246 1.11367246 0 0 Z " fill="#2C3477" transform="translate(1167,690)"/>
</svg>
